# xmcd
#
# Track frame offsets:
#	150
#	16720
#	38465
#	54945
#	73307
#	90357
#	106380
#	126292
#	144337
#	161750
#	180075
#
# Disc length: 2667 seconds
#
# Revision: 1
# Processed by: cddbd v1.4PL0 Copyright (c) Steve Scherf et al.
# Submitted via: EasyCDDAExtractor 5.0.7
#
DISCID=7f0a690b
DTITLE=Bonnie Rait - Grammy Sampler
DYEAR=1995
DGENRE=Blues
TTITLE0=Love Sneakin' Up On You
TTITLE1=Longing in Their Hearts
TTITLE2=I Sho Do
TTITLE3=Hell to Pay
TTITLE4=Something to Talk About
TTITLE5=Good Man Good Woman
TTITLE6=No Business
TTITLE7=Slow Ride
TTITLE8=Thing Called Love
TTITLE9=Love Letter
TTITLE10=Real Man
EXTD=
EXTT0=
EXTT1=
EXTT2=
EXTT3=
EXTT4=
EXTT5=
EXTT6=
EXTT7=
EXTT8=
EXTT9=
EXTT10=
PLAYORDER=
